<svg xmlns="http://www.w3.org/2000/svg" viewBox="0 0 68.45 72.81"><defs><style>.cls-1{fill:#eff1f3;}.cls-2{fill:#5dd36c;}</style></defs><g id="Layer_2" data-name="Layer 2"><g id="add"><path class="cls-1" d="M53.5,19.69v2.46a12.48,12.48,0,0,1-7.38-7.68h2.16A5.22,5.22,0,0,1,53.5,19.69Z"/><path class="cls-1" d="M65,12.33a3,3,0,0,1-3,3.16H59.71a.76.76,0,0,0-.75.75v2.25a3,3,0,0,1-3.16,3A3.13,3.13,0,0,1,53,18.32V16.24a.76.76,0,0,0-.75-.75H50a3,3,0,0,1-3-3.16,3.13,3.13,0,0,1,3.17-2.84h2.08A.76.76,0,0,0,53,8.74V6.49a3,3,0,0,1,3.16-3A3.13,3.13,0,0,1,59,6.66V8.74a.76.76,0,0,0,.75.75h2.08A3.13,3.13,0,0,1,65,12.33Z"/><path class="cls-1" d="M53.5,19.52V67.59a5.22,5.22,0,0,1-5.22,5.22H41.72a5.22,5.22,0,0,1-5.22-5.22V61.52a5.22,5.22,0,0,0-5.22-5.21H21.72a5.22,5.22,0,0,0-5.22,5.21v6.07a5.22,5.22,0,0,1-5.22,5.22H5.22A5.22,5.22,0,0,1,0,67.59V19.52a5.22,5.22,0,0,1,5.22-5.21H48.28A5.22,5.22,0,0,1,53.5,19.52Z"/><rect class="cls-2" x="8.75" y="21.31" width="8" height="8" rx="0.53"/><rect class="cls-2" x="22.75" y="21.31" width="8" height="8" rx="0.53"/><rect class="cls-2" x="36.75" y="21.31" width="8" height="8" rx="0.53"/><rect class="cls-2" x="8.75" y="35.31" width="8" height="8" rx="0.53"/><rect class="cls-2" x="22.75" y="35.31" width="8" height="8" rx="0.53"/><rect class="cls-2" x="36.75" y="35.31" width="8" height="8" rx="0.53"/><path class="cls-2" d="M56,0A12.49,12.49,0,0,0,51.5,24.15,12.23,12.23,0,0,0,56,25,12.49,12.49,0,1,0,56,0Zm6,15.49H59.71a.76.76,0,0,0-.75.75v2.25a3,3,0,0,1-3.16,3A3.13,3.13,0,0,1,53,18.32V16.24a.76.76,0,0,0-.75-.75H50a3,3,0,0,1-3-3.16,3.13,3.13,0,0,1,3.17-2.84h2.08A.76.76,0,0,0,53,8.74V6.49a3,3,0,0,1,3.16-3A3.13,3.13,0,0,1,59,6.66V8.74a.76.76,0,0,0,.75.75h2.08A3.13,3.13,0,0,1,65,12.33,3,3,0,0,1,62,15.49Z"/></g></g></svg>