<svg xmlns="http://www.w3.org/2000/svg" viewBox="0 0 62.59 64.37"><defs><style>.cls-1{fill:#fff;}.cls-2{fill:#5dd36c;}.cls-3{fill:none;}</style></defs><g id="Layer_2" data-name="Layer 2"><g id="admin"><path class="cls-1" d="M47.91,16.61a16.61,16.61,0,1,1-33.21,0,16.16,16.16,0,0,1,.27-3,16.6,16.6,0,0,1,32.91,2C47.9,16,47.91,16.28,47.91,16.61Z"/><path class="cls-2" d="M29.32,47.26,26.53,60.71h0L19.45,42.56a40.08,40.08,0,0,1,6.31-1.28Z"/><path class="cls-1" d="M29.32,47.26,26.53,60.71h0L19.45,42.56a40.08,40.08,0,0,1,6.31-1.28Z"/><path class="cls-2" d="M31.3,41V64.37H0a16.52,16.52,0,0,1,.06-2.66c.06-.61.16-1.31.31-2.06A16.11,16.11,0,0,1,3.32,53,30.81,30.81,0,0,1,19.45,42.56l7.07,18.15h0l2.79-13.45-3.56-6c1.26-.16,2.52-.26,3.8-.31.34,0,.69,0,1,0Z"/><line class="cls-3" x1="31.3" y1="64.37" x2="31.3" y2="40.96"/><path class="cls-2" d="M33.28,47.26l2.79,13.45h0l7.07-18.15a40.08,40.08,0,0,0-6.31-1.28Z"/><path class="cls-1" d="M33.28,47.26l2.79,13.45h0l7.07-18.15a40.08,40.08,0,0,0-6.31-1.28Z"/><path class="cls-2" d="M31.3,41V64.37H62.57a16.52,16.52,0,0,0-.06-2.66c-.06-.61-.16-1.31-.31-2.06A16.11,16.11,0,0,0,59.28,53,30.81,30.81,0,0,0,43.15,42.56L36.08,60.71h0L33.28,47.26l3.56-6C35.58,41.12,34.32,41,33,41c-.34,0-.69,0-1,0Z"/><line class="cls-3" x1="31.3" y1="40.96" x2="31.3" y2="64.37"/><path class="cls-2" d="M47.88,15.63c-3.83-.21-7.78-3.19-9.18-8A41.42,41.42,0,0,1,26,12.77a41,41,0,0,1-11,.87,16.6,16.6,0,0,1,32.91,2Z"/></g></g></svg>