<svg xmlns="http://www.w3.org/2000/svg" viewBox="0 0 53.5 58.5"><defs><style>.cls-1{fill:#eff1f3;}.cls-2{fill:#5dd36c;}</style></defs><g id="Layer_2" data-name="Layer 2"><g id="base"><path class="cls-1" d="M53.5,5.22V53.28a5.22,5.22,0,0,1-5.22,5.22H41.72a5.22,5.22,0,0,1-5.22-5.22V47.22A5.22,5.22,0,0,0,31.28,42H21.72a5.22,5.22,0,0,0-5.22,5.22v6.06a5.22,5.22,0,0,1-5.22,5.22H5.22A5.22,5.22,0,0,1,0,53.28V5.22A5.22,5.22,0,0,1,5.22,0H48.28A5.22,5.22,0,0,1,53.5,5.22Z"/><rect class="cls-2" x="8.75" y="7" width="8" height="8" rx="0.53"/><rect class="cls-2" x="22.75" y="7" width="8" height="8" rx="0.53"/><rect class="cls-2" x="36.75" y="7" width="8" height="8" rx="0.53"/><rect class="cls-2" x="8.75" y="21" width="8" height="8" rx="0.53"/><rect class="cls-2" x="22.75" y="21" width="8" height="8" rx="0.53"/><rect class="cls-2" x="36.75" y="21" width="8" height="8" rx="0.53"/></g></g></svg>