<svg xmlns="http://www.w3.org/2000/svg" viewBox="0 0 67.45 72.98"><defs><style>.cls-1{fill:#eff1f3;}.cls-2{fill:#5dd36c;}</style></defs><g id="Layer_2" data-name="Layer 2"><g id="delete"><path class="cls-1" d="M53.5,19.69V67.76A5.22,5.22,0,0,1,48.28,73H41.72a5.22,5.22,0,0,1-5.22-5.22V61.69a5.22,5.22,0,0,0-5.22-5.21H21.72a5.22,5.22,0,0,0-5.22,5.21v6.07A5.22,5.22,0,0,1,11.28,73H5.22A5.22,5.22,0,0,1,0,67.76V19.69a5.22,5.22,0,0,1,5.22-5.21H48.28A5.22,5.22,0,0,1,53.5,19.69Z"/><rect class="cls-2" x="8.75" y="21.48" width="8" height="8" rx="0.53"/><rect class="cls-2" x="22.75" y="21.48" width="8" height="8" rx="0.53"/><rect class="cls-2" x="36.75" y="21.48" width="8" height="8" rx="0.53"/><rect class="cls-2" x="8.75" y="35.48" width="8" height="8" rx="0.53"/><rect class="cls-2" x="22.75" y="35.48" width="8" height="8" rx="0.53"/><rect class="cls-2" x="36.75" y="35.48" width="8" height="8" rx="0.53"/><path class="cls-1" d="M64,12.49a3,3,0,0,1-.36,1.43,1.28,1.28,0,0,1-.15.25,2.61,2.61,0,0,1-.37.44,3,3,0,0,1-2.11.88H49a2.89,2.89,0,0,1-1.43-.36,3.06,3.06,0,0,1-1.21-1.21A2.89,2.89,0,0,1,46,12.49c0-.1,0-.21,0-.31a2.13,2.13,0,0,1,0-.25,1.33,1.33,0,0,1,.05-.19,3.55,3.55,0,0,1,.21-.54,3.14,3.14,0,0,1,.57-.83,3,3,0,0,1,2-.87H61.09a3,3,0,0,1,2.56,1.7,2,2,0,0,1,.16.4,2.45,2.45,0,0,1,.08.29A2.91,2.91,0,0,1,64,12.49Z"/><path class="cls-2" d="M55,0A12.49,12.49,0,0,0,50.5,24.15,12.23,12.23,0,0,0,55,25,12.49,12.49,0,1,0,55,0Zm8.63,13.92a1.28,1.28,0,0,1-.15.25,2.61,2.61,0,0,1-.37.44,3,3,0,0,1-2.11.88H49a2.89,2.89,0,0,1-1.43-.36,3.06,3.06,0,0,1-1.21-1.21A2.89,2.89,0,0,1,46,12.49v-.16a.77.77,0,0,1,0-.15,2.13,2.13,0,0,1,0-.25,1.33,1.33,0,0,1,.05-.19,3.55,3.55,0,0,1,.21-.54,3.14,3.14,0,0,1,.57-.83,3,3,0,0,1,2-.87H61.09a3,3,0,0,1,2.56,1.7,2,2,0,0,1,.16.4,1,1,0,0,1,.08.29,2.13,2.13,0,0,1,.07.44A2.86,2.86,0,0,1,63.59,13.92Z"/></g></g></svg>