<svg xmlns="http://www.w3.org/2000/svg" viewBox="0 0 67.73 72.74"><defs><style>.cls-1{fill:#eff1f3;}.cls-2{fill:#5dd36c;}</style></defs><g id="Layer_2" data-name="Layer 2"><g id="edit"><path class="cls-1" d="M53.5,19.45V67.52a5.22,5.22,0,0,1-5.22,5.22H41.72a5.22,5.22,0,0,1-5.22-5.22V61.45a5.22,5.22,0,0,0-5.22-5.21H21.72a5.22,5.22,0,0,0-5.22,5.21v6.07a5.22,5.22,0,0,1-5.22,5.22H5.22A5.22,5.22,0,0,1,0,67.52V19.45a5.22,5.22,0,0,1,5.22-5.21H48.28A5.22,5.22,0,0,1,53.5,19.45Z"/><rect class="cls-2" x="8.75" y="21.24" width="8" height="8" rx="0.53"/><rect class="cls-2" x="22.75" y="21.24" width="8" height="8" rx="0.53"/><rect class="cls-2" x="36.75" y="21.24" width="8" height="8" rx="0.53"/><rect class="cls-2" x="8.75" y="35.24" width="8" height="8" rx="0.53"/><rect class="cls-2" x="22.75" y="35.24" width="8" height="8" rx="0.53"/><rect class="cls-2" x="36.75" y="35.24" width="8" height="8" rx="0.53"/><path class="cls-2" d="M55.24,0a12.49,12.49,0,0,0-4.46,24.15,12.23,12.23,0,0,0,4.46.83,12.49,12.49,0,1,0,0-25Z"/><path class="cls-1" d="M49.86,14.87l3.47,3.47-3.51.84a.67.67,0,0,1-.8-.8Z"/><path class="cls-1" d="M62.77,8.9l-7.33,7.33L52,12.77,59.3,5.43a.67.67,0,0,1,.93,0L62.77,8A.65.65,0,0,1,62.77,8.9Z"/></g></g></svg>