<svg xmlns="http://www.w3.org/2000/svg" viewBox="0 0 91.69 96.66"><defs><style>.cls-1{fill:#eff1f3;}.cls-2{fill:#5dd36c;}</style></defs><g id="Layer_2" data-name="Layer 2"><g id="feedback"><path class="cls-1" d="M79.83,28.79H32A11.85,11.85,0,0,0,20.17,40.64v29A11.86,11.86,0,0,0,32,81.48H49.37a25.49,25.49,0,0,1-6.19,7.86,67.45,67.45,0,0,1-10.08,7A28.85,28.85,0,0,0,49.59,94a37.13,37.13,0,0,0,5.53-3.2c3.57-2.45,7-5.58,9-9.35H79.83A11.86,11.86,0,0,0,91.69,69.63v-29A11.85,11.85,0,0,0,79.83,28.79Z"/><rect class="cls-2" y="20.65" width="18.16" height="31.58" rx="4.15"/><path class="cls-2" d="M23.34,20.46V51.65c8.67.05,21.29,1.82,24.73-.33s3.66-4.25,4.84-6.62a8.12,8.12,0,0,0,5.33-6.62A7.65,7.65,0,0,0,57,33.23a7.26,7.26,0,0,0,3.56-7.76A7.18,7.18,0,0,0,56.63,21H35.3a21.1,21.1,0,0,0,1.78-9C37,9.82,36.81,3.67,32.71,1.07c-.37-.23-2.6-1.65-4-.8-1.69,1-.94,4.31-1.13,7.91A25,25,0,0,1,23.34,20.46Z"/></g></g></svg>