<svg xmlns="http://www.w3.org/2000/svg" viewBox="0 0 70.58 50.96"><defs><style>.cls-1{fill:#eff1f3;}.cls-2{fill:#5dd36c;}</style></defs><g id="Layer_2" data-name="Layer 2"><g id="filter"><path class="cls-1" d="M49.7,6.55H4.5A4.5,4.5,0,0,0,0,11.05v3.72A6.09,6.09,0,0,0,2,19.3l20.4,12.3V43.83A1.46,1.46,0,0,0,22.94,45l7,5.75a1.14,1.14,0,0,0,1.86-.88V31.6l20.4-12.3a6.06,6.06,0,0,0,2-4.53V11.05A4.51,4.51,0,0,0,49.7,6.55Z"/><path class="cls-2" d="M66.08,0H20.88a4.49,4.49,0,0,0-4.5,4.5V8.22a6.11,6.11,0,0,0,2,4.53l20.4,12.3V37.28a1.41,1.41,0,0,0,.53,1.11l7,5.76a1.14,1.14,0,0,0,1.87-.88V25.05l20.4-12.3a6.12,6.12,0,0,0,2-4.53V4.5A4.5,4.5,0,0,0,66.08,0Z"/></g></g></svg>