<svg xmlns="http://www.w3.org/2000/svg" viewBox="0 0 56 56"><defs><style>.cls-1{fill:#5dd36c;}.cls-2{fill:#fff;}</style></defs><g id="Layer_2" data-name="Layer 2"><g id="commons"><circle class="cls-1" cx="28" cy="28" r="28"/><path class="cls-2" d="M32.65,39.39V26.81a2.36,2.36,0,0,0-2.36-2.36H19.13a2.35,2.35,0,0,0-2.35,2.36h0a2.35,2.35,0,0,0,2.35,2.35h2.29a2.36,2.36,0,0,1,2.36,2.35V44.1a2.35,2.35,0,0,0,2.35,2.35h11a2.36,2.36,0,0,0,2.36-2.35h0a2.36,2.36,0,0,0-2.36-2.36H35A2.35,2.35,0,0,1,32.65,39.39Z"/><circle class="cls-2" cx="28" cy="14.33" r="5.82"/></g></g></svg>