<svg xmlns="http://www.w3.org/2000/svg" viewBox="0 0 65.6 67.57"><defs><style>.cls-1{fill:#eff1f3;}.cls-2{fill:#5dd36c;}</style></defs><g id="Layer_2" data-name="Layer 2"><g id="logout"><path class="cls-1" d="M57.37,0H20.23A8.22,8.22,0,0,0,12,8.23v6.09l3.22-2.79A9.39,9.39,0,0,1,28.79,24.38H35.6a9.4,9.4,0,0,1,0,18.8H28.78a9.36,9.36,0,0,1-.51,12.13,9.47,9.47,0,0,1-6.92,3A9.34,9.34,0,0,1,15,55.85l-3-2.71v6.2a8.23,8.23,0,0,0,8.23,8.23H57.37a8.24,8.24,0,0,0,8.23-8.23V8.23A8.23,8.23,0,0,0,57.37,0Z"/><path class="cls-2" d="M18.4,52.18a4.39,4.39,0,0,0,5.93-6.47L20.8,42.47l-4.66-4.29H35.6a4.4,4.4,0,0,0,0-8.8H15.67L24.24,22a4.39,4.39,0,0,0-5.75-6.64L12,20.94,1.52,30a3.5,3.5,0,0,0-.76.87A4.42,4.42,0,0,0,0,33.29v.06c0,.07,0,.13,0,.2s0,.16,0,.23a4.31,4.31,0,0,0,.76,2.45L12,46.39Z"/></g></g></svg>