<svg xmlns="http://www.w3.org/2000/svg" viewBox="0 0 56 56"><defs><style>.cls-1{fill:#fff;}.cls-2{fill:#5dd36c;}</style></defs><g id="Layer_2" data-name="Layer 2"><g id="commons"><circle class="cls-1" cx="28" cy="28" r="28"/><polygon class="cls-2" points="41.01 15.31 11.71 15.31 26.36 28.45 41.01 15.31"/><path class="cls-2" d="M42.66,24.48q.66,0,1.29.06V18.05L27.7,32.62a2,2,0,0,1-1.34.51A2,2,0,0,1,25,32.62L8.77,18V36.26a2.43,2.43,0,0,0,2.43,2.43H30.46a13,13,0,0,1-.14-1.88A12.35,12.35,0,0,1,42.66,24.48Z"/><path class="cls-2" d="M44,27.57a9.11,9.11,0,0,0-1.29-.09,9.34,9.34,0,0,0-9.34,9.33,9,9,0,0,0,.19,1.88A9.34,9.34,0,1,0,44,27.57Z"/><path class="cls-1" d="M41.13,42.1a1.46,1.46,0,0,1-1-.38l-3.8-3.39a1.5,1.5,0,0,1,2-2.24l2.8,2.5,6.7-6a1.5,1.5,0,1,1,2,2.23l-7.7,6.89A1.49,1.49,0,0,1,41.13,42.1Z"/></g></g></svg>