<svg xmlns="http://www.w3.org/2000/svg" viewBox="0 0 56 56"><defs><style>.cls-1{fill:#fff;}.cls-2{fill:#5dd36c;}</style></defs><g id="Layer_2" data-name="Layer 2"><g id="commons"><circle class="cls-1" cx="28" cy="28" r="28"/><polygon class="cls-2" points="39.77 14.83 10.47 14.83 25.12 27.97 39.77 14.83"/><path class="cls-2" d="M41.42,24q.66,0,1.29.06V17.57L26.46,32.14a2,2,0,0,1-1.34.51,2,2,0,0,1-1.33-.51L7.53,17.56V35.78A2.43,2.43,0,0,0,10,38.21H29.22a13,13,0,0,1-.14-1.88A12.35,12.35,0,0,1,41.42,24Z"/><path class="cls-2" d="M42.71,27.09A9.11,9.11,0,0,0,41.42,27a9.34,9.34,0,0,0-9.34,9.33,9,9,0,0,0,.19,1.88A9.34,9.34,0,1,0,42.71,27.09Z"/><path class="cls-1" d="M47.07,39.17l-2.83-2.84,2.82-2.83a2,2,0,0,0-2.83-2.82L41.41,33.5l-2.82-2.81a2,2,0,0,0-2.82,2.82l2.81,2.82-2.83,2.83A2,2,0,0,0,38.58,42l2.83-2.82L44.24,42a2,2,0,0,0,1.42.59,2,2,0,0,0,1.41-3.41Z"/></g></g></svg>