<svg xmlns="http://www.w3.org/2000/svg" viewBox="0 0 85.55 58.72"><defs><style>.cls-1{fill:#eff1f3;}.cls-2{fill:#5dd36c;}</style></defs><g id="Layer_2" data-name="Layer 2"><g id="download"><path class="cls-1" d="M26.58,44.91l-22.94,12A2.49,2.49,0,0,1,0,54.65V16.17A3.69,3.69,0,0,1,2,12.9L26.53,0a.05.05,0,0,1,.08,0v44.8A.05.05,0,0,1,26.58,44.91Z"/><path class="cls-2" d="M26.64,44.91l26.49,13.8a.06.06,0,0,0,.09-.05V14a.09.09,0,0,0,0-.05L26.69,0a.05.05,0,0,0-.08,0v44.8A.05.05,0,0,0,26.64,44.91Z"/><path class="cls-1" d="M79.82,3.61v9.64a.05.05,0,0,1-.1,0,5.3,5.3,0,0,0-5.23-2.41,5.49,5.49,0,0,0-4.57,5.52V19a.05.05,0,0,1-.08.05,5.26,5.26,0,0,0-2.59-.67A5.32,5.32,0,0,0,62,24.25a5.61,5.61,0,0,0,1.39,3l6.21,7.14a.06.06,0,0,1,0,.1H67.05a5.49,5.49,0,0,0-5.56,4.84,5.32,5.32,0,0,0,5.29,5.79H79.13c.06,0,.08.08,0,.1L53.3,58.71a.06.06,0,0,1-.08-.05V14a.05.05,0,0,1,0-.05L76.59,1.66A2.21,2.21,0,0,1,79.82,3.61Z"/><path class="cls-1" d="M79.82,37.51v4.63h-13a2.32,2.32,0,1,1,0-4.63Z"/><path class="cls-1" d="M77.56,26.4l2.26-2.46v6.84L77.4,33.41a2.36,2.36,0,0,1-.87,1.1,2.29,2.29,0,0,1-1.29.4H75a2.35,2.35,0,0,1-1.26-.4,2,2,0,0,1-.46-.4L65.5,25.16a2.31,2.31,0,0,1,3.5-3l3.92,4.52V16.14a2.32,2.32,0,0,1,4.64,0Z"/><path class="cls-2" d="M75,34.91a2.35,2.35,0,0,1-1.26-.4h2.81a2.29,2.29,0,0,1-1.29.4H75Z"/><path class="cls-2" d="M85.55,39.82a2.32,2.32,0,0,1-2.32,2.32H66.78a2.32,2.32,0,1,1,0-4.63H83.23A2.31,2.31,0,0,1,85.55,39.82Z"/><path class="cls-2" d="M85.55,39.82a2.32,2.32,0,0,1-2.32,2.32H66.78a2.32,2.32,0,1,1,0-4.63H83.23A2.31,2.31,0,0,1,85.55,39.82Z"/><path class="cls-2" d="M73,37.51h4.24a5.27,5.27,0,0,1-2,.4H75A5.52,5.52,0,0,1,73,37.51Z"/><path class="cls-2" d="M84.94,25.21l-5.12,5.57L77.4,33.41a2.36,2.36,0,0,1-.87,1.1,2.29,2.29,0,0,1-1.29.4H75a2.35,2.35,0,0,1-1.26-.4,2,2,0,0,1-.46-.4L65.5,25.16a2.31,2.31,0,0,1,3.5-3l3.92,4.52V16.14a2.32,2.32,0,0,1,4.64,0V26.4l2.26-2.46,1.71-1.86a2.31,2.31,0,0,1,3.41,3.13Z"/><path class="cls-2" d="M84.94,25.21l-5.12,5.57L77.4,33.41a2.36,2.36,0,0,1-.87,1.1,2.29,2.29,0,0,1-1.29.4H75a2.35,2.35,0,0,1-1.26-.4,2,2,0,0,1-.46-.4L65.5,25.16a2.31,2.31,0,0,1,3.5-3l3.92,4.52V16.14a2.32,2.32,0,0,1,4.64,0V26.4l2.26-2.46,1.71-1.86a2.31,2.31,0,0,1,3.41,3.13Z"/></g></g></svg>