<svg xmlns="http://www.w3.org/2000/svg" viewBox="0 0 73.97 58.78"><defs><style>.cls-1{fill:#eff1f3;}.cls-2{fill:#5dd36c;}</style></defs><g id="Layer_2" data-name="Layer 2"><g id="report"><path class="cls-1" d="M57.67,6.69,51.2,12.52l-3.06,2.76L38.51,24,37.2,22.24l-.73-1-4.57-6-1.54-2-1.16,1-7.87,7L15.2,26.73,6.45,34.5V5.5A5.22,5.22,0,0,1,11.67.28H54.73a4.7,4.7,0,0,1,.92.09A5.89,5.89,0,0,0,55.42,2,6,6,0,0,0,57.67,6.69Z"/><path class="cls-1" d="M51.2,28.67,60,20.79V53.57a5.22,5.22,0,0,1-5.22,5.21H48.17A5.21,5.21,0,0,1,43,53.57V47.5a5.22,5.22,0,0,0-5.22-5.22H28.17A5.22,5.22,0,0,0,23,47.5v6.07a5.22,5.22,0,0,1-5.22,5.21H11.67a5.21,5.21,0,0,1-5.22-5.21v-3l22.2-19.73L36.86,41.6,50.53,29.28Z"/><polygon class="cls-1" points="59.95 10.02 59.95 15.4 51.2 23.29 44.55 29.28 37.41 35.72 32.5 29.28 29.22 24.97 29.2 24.99 6.45 45.2 6.45 39.85 18.35 29.28 23.2 24.97 29.79 19.11 31.44 21.28 37.19 28.83 37.96 29.84 43.2 25.12 47.46 21.28 59.95 10.02"/><rect class="cls-2" x="15.2" y="7.28" width="8" height="8" rx="0.53"/><path class="cls-2" d="M37.2,7.81v6.94a.53.53,0,0,1-.53.53H31.9l-1.54-2-1.16,1V7.81a.53.53,0,0,1,.53-.53h6.94A.53.53,0,0,1,37.2,7.81Z"/><path class="cls-2" d="M51.2,7.81v4.71l-3.06,2.76H43.73a.52.52,0,0,1-.53-.53V7.81a.53.53,0,0,1,.53-.53h6.94A.53.53,0,0,1,51.2,7.81Z"/><path class="cls-2" d="M21.33,21.28,15.2,26.73V21.81a.53.53,0,0,1,.53-.53Z"/><path class="cls-2" d="M23.2,25v3.78a.53.53,0,0,1-.53.53H18.35Z"/><path class="cls-2" d="M37.19,28.83a.52.52,0,0,1-.52.45H32.5L29.22,25l0,0V21.81a.53.53,0,0,1,.53-.53h1.71Z"/><path class="cls-2" d="M37.2,21.81v.43l-.73-1h.2A.53.53,0,0,1,37.2,21.81Z"/><path class="cls-2" d="M51.2,21.81v1.48l-6.65,6h-.82a.52.52,0,0,1-.53-.53V25.12l4.26-3.84h3.21A.53.53,0,0,1,51.2,21.81Z"/><path class="cls-2" d="M50.53,29.28l.67-.61v.08a.53.53,0,0,1-.53.53Z"/><path class="cls-2" d="M74,2V12.55a2,2,0,0,1-4,0V6.37l-10,9L51.2,23.29l-6.65,6-7.14,6.44L32.5,29.28,29.22,25l0,0L6.45,45.2,3.32,48a2,2,0,0,1-1.33.5A2,2,0,0,1,.67,45l5.78-5.14,11.9-10.57L23.2,25l6.59-5.86,1.65,2.17,5.75,7.55.77,1,5.24-4.72,4.26-3.84L60,10l6.68-6H61.42a2,2,0,0,1,0-4H72A2,2,0,0,1,74,2Z"/></g></g></svg>