<svg xmlns="http://www.w3.org/2000/svg" viewBox="0 0 68.33 72.49"><defs><style>.cls-1{fill:#eff1f3;}.cls-2{fill:#5dd36c;}</style></defs><g id="Layer_2" data-name="Layer 2"><g id="request"><path class="cls-1" d="M53.5,19.38v2.46a12.48,12.48,0,0,1-7.38-7.68h2.16A5.22,5.22,0,0,1,53.5,19.38Z"/><path class="cls-1" d="M53.5,19.21V67.28a5.22,5.22,0,0,1-5.22,5.21H41.72a5.22,5.22,0,0,1-5.22-5.21V61.21A5.22,5.22,0,0,0,31.28,56H21.72a5.22,5.22,0,0,0-5.22,5.22v6.07a5.22,5.22,0,0,1-5.22,5.21H5.22A5.22,5.22,0,0,1,0,67.28V19.21A5.22,5.22,0,0,1,5.22,14H48.28A5.22,5.22,0,0,1,53.5,19.21Z"/><rect class="cls-2" x="8.75" y="20.99" width="8" height="8" rx="0.53"/><rect class="cls-2" x="22.75" y="20.99" width="8" height="8" rx="0.53"/><rect class="cls-2" x="36.75" y="20.99" width="8" height="8" rx="0.53"/><rect class="cls-2" x="8.75" y="34.99" width="8" height="8" rx="0.53"/><rect class="cls-2" x="22.75" y="34.99" width="8" height="8" rx="0.53"/><rect class="cls-2" x="36.75" y="34.99" width="8" height="8" rx="0.53"/><path class="cls-2" d="M55.84,0a12.49,12.49,0,0,0-4.46,24.15,12.23,12.23,0,0,0,4.46.83,12.49,12.49,0,0,0,0-25Z"/><path class="cls-1" d="M54.55,19.1a2,2,0,0,1-1.47-.64l-5.19-5.61a2,2,0,1,1,2.94-2.72l3.65,3.95L60.8,6.59a2,2,0,0,1,3.06,2.58l-7.78,9.22a2,2,0,0,1-1.49.71Z"/></g></g></svg>