<svg xmlns="http://www.w3.org/2000/svg" viewBox="0 0 65.23 71.52"><defs><style>.cls-1{fill:#eff1f3;}.cls-2{fill:#5dd36c;}</style></defs><g id="Layer_2" data-name="Layer 2"><g id="xlsx"><path class="cls-1" d="M53.5,18.24v8.4H42.82a1,1,0,0,1-1-.91V13H48.4a4.9,4.9,0,0,1,1.63.29,5.12,5.12,0,0,1,2.67,2.15,4.21,4.21,0,0,1,.51,1.07A5,5,0,0,1,53.5,18.24Z"/><path class="cls-1" d="M42.82,30.64H53.5V66.31a5.21,5.21,0,0,1-5.21,5.21H41.72a5.22,5.22,0,0,1-5.22-5.21V60.24A5.22,5.22,0,0,0,31.29,55H21.72a5.22,5.22,0,0,0-5.22,5.22v6.07a5.21,5.21,0,0,1-5.21,5.21H5.22A5.22,5.22,0,0,1,0,66.31V18.24A5.22,5.22,0,0,1,5.22,13H37.78V25.73A4.73,4.73,0,0,0,38.37,28,5,5,0,0,0,42.82,30.64Z"/><rect class="cls-2" x="8.75" y="20.02" width="8" height="8" rx="0.53"/><rect class="cls-2" x="22.75" y="20.02" width="8" height="8" rx="0.53"/><path class="cls-2" d="M37.78,25.73A4.73,4.73,0,0,0,38.37,28H37.28a.53.53,0,0,1-.53-.53V20.55a.53.53,0,0,1,.53-.53h.5Z"/><path class="cls-2" d="M44.75,20.55v6.09H42.82a1,1,0,0,1-1-.91V20h2.44A.53.53,0,0,1,44.75,20.55Z"/><rect class="cls-2" x="8.75" y="34.02" width="8" height="8" rx="0.53"/><rect class="cls-2" x="22.75" y="34.02" width="8" height="8" rx="0.53"/><rect class="cls-2" x="36.75" y="34.02" width="8" height="8" rx="0.53"/><path class="cls-2" d="M65.23,7.73v18a1,1,0,0,1-1,.91H42.82a1,1,0,0,1-1-.91V.91a1,1,0,0,1,1-.91H58.65a1.1,1.1,0,0,1,.85.38L65,7.2A.81.81,0,0,1,65.23,7.73Z"/><path class="cls-2" d="M65.23,7.73v18a1,1,0,0,1-1,.91H42.82a1,1,0,0,1-1-.91V.91a1,1,0,0,1,1-.91H58.65a1.1,1.1,0,0,1,.85.38L65,7.2A.81.81,0,0,1,65.23,7.73Z"/><rect class="cls-1" x="48.4" y="5.39" width="3.93" height="3.93" rx="0.71"/><rect class="cls-1" x="54.07" y="6.33" width="4.61" height="2.04" rx="0.34"/><rect class="cls-1" x="48.32" y="10.98" width="10.36" height="2.04" rx="0.34"/><rect class="cls-1" x="48.32" y="15.38" width="10.36" height="2.04" rx="0.34"/><rect class="cls-1" x="48.32" y="19.78" width="10.36" height="2.04" rx="0.34"/></g></g></svg>