<svg xmlns="http://www.w3.org/2000/svg" viewBox="0 0 65.84 65.84"><defs><style>.cls-1{fill:#5dd36c;}.cls-2{fill:#fff;}</style></defs><g id="Layer_2" data-name="Layer 2"><g id="cluster"><circle class="cls-1" cx="32.92" cy="32.92" r="32.92"/><circle class="cls-2" cx="32.92" cy="32.92" r="28.47"/><circle class="cls-1" cx="24.4" cy="16.5" r="4.14"/><circle class="cls-1" cx="34.98" cy="30.85" r="2.07"/><circle class="cls-1" cx="49.67" cy="21.88" r="4.04"/><circle class="cls-1" cx="47.71" cy="46.88" r="3.14"/><circle class="cls-1" cx="18.52" cy="46.28" r="6.54"/><rect class="cls-1" x="28.69" y="14.76" width="2" height="17.83" transform="translate(-8.26 22.25) rotate(-36.42)"/><rect class="cls-1" x="33.74" y="25.56" width="17.83" height="2" transform="translate(-7.42 22.4) rotate(-27.15)"/><polygon class="cls-1" points="35.42 29.99 48.72 46.88 47.15 48.12 33.85 31.23 35.42 29.99"/><polyline class="cls-1" points="35.07 31.14 20.05 46.52 18.62 45.13 33.63 29.74"/><circle class="cls-1" cx="18.62" cy="29.74" r="3.82"/><polyline class="cls-1" points="34.23 31.25 20.25 30.99 20.26 28.99 34.25 29.25"/></g></g></svg>