<svg xmlns="http://www.w3.org/2000/svg" viewBox="0 0 55.22 75.58"><defs><style>.cls-1{fill:#ED1C24;}.cls-2{fill:#fff;}.cls-3{fill:#343541;}</style></defs><g id="Layer_2" data-name="Layer 2"><g id="gps-admin"><path class="cls-1" d="M55.22,27.61A27.61,27.61,0,0,0,0,27.61c0,15.25,27.61,48,27.61,48S55.22,42.86,55.22,27.61Z"/><circle class="cls-2" cx="27.61" cy="27.61" r="20.85"/><path class="cls-2" d="M35.2,18a7.59,7.59,0,0,1-15.14.74c0-.24,0-.49,0-.74a7.59,7.59,0,0,1,15.16-.44C35.2,17.75,35.2,17.89,35.2,18Z"/><path class="cls-3" d="M27.61,29.17v10.7H13.32a7.49,7.49,0,0,1,0-1.21,8.11,8.11,0,0,1,1.47-4,13.76,13.76,0,0,1,6.64-4.54l3.69,9.49h0l1.75-8.46-1.14-1.92c.35,0,.69-.06,1.05-.07l.47,0Z"/><path class="cls-2" d="M26.91,31.17l-1.75,8.46h0l-3.69-9.49.74-.24a19.58,19.58,0,0,1,2.88-.58c.23,0,.46-.06.69-.07Z"/><line class="cls-3" x1="27.61" y1="39.87" x2="27.61" y2="29.17"/><path class="cls-3" d="M27.61,29.17v10.7H41.9a6.71,6.71,0,0,0,0-1.21c0-.28-.08-.6-.14-.94a7.42,7.42,0,0,0-1.34-3,13.78,13.78,0,0,0-6.63-4.54l-3.7,9.49h0l-1.76-8.46,1.14-1.92c-.34,0-.69-.06-1-.07l-.47,0Z"/><path class="cls-2" d="M28.31,31.17l1.76,8.46h0l3.7-9.49L33,29.9a19.46,19.46,0,0,0-2.89-.58c-.22,0-.46-.06-.69-.07Z"/><line class="cls-3" x1="27.61" y1="29.17" x2="27.61" y2="39.87"/><path class="cls-3" d="M35.2,18a7.62,7.62,0,0,1-.17,1.6,7.1,7.1,0,0,1-3.47-4.86,20.41,20.41,0,0,1-6.91,3.39,17.7,17.7,0,0,1-4.59.61c0-.24,0-.49,0-.74a7.59,7.59,0,0,1,15.16-.44C35.2,17.75,35.2,17.89,35.2,18Z"/></g></g></svg>