<svg xmlns="http://www.w3.org/2000/svg" viewBox="0 0 55.22 75.58"><defs><style>.cls-1{fill:#D71275;}.cls-2{fill:#fff;}.cls-3{fill:#343541;}</style></defs><g id="Layer_2" data-name="Layer 2"><g id="gps-house"><path class="cls-1" d="M55.22,27.61A27.61,27.61,0,0,0,0,27.61c0,15.25,27.61,48,27.61,48S55.22,42.86,55.22,27.61Z"/><circle class="cls-2" cx="27.61" cy="27.61" r="20.85"/><path class="cls-3" d="M45.13,25.79h-2a1.33,1.33,0,0,0-1.32,1.33V35.8a1.33,1.33,0,0,1-1.32,1.33H32.39V31.36a1.87,1.87,0,0,0-1.86-1.86H24.69a1.86,1.86,0,0,0-1.85,1.86v5.77H14.7a1.33,1.33,0,0,1-1.32-1.33V27.12a1.33,1.33,0,0,0-1.32-1.33h-2a1.32,1.32,0,0,1-.67-2.46L26.94,13.05a1.29,1.29,0,0,1,1.34,0L45.8,23.33A1.32,1.32,0,0,1,45.13,25.79Z"/></g></g></svg>