<svg xmlns="http://www.w3.org/2000/svg" viewBox="0 0 55.22 75.58"><defs><style>.cls-1{fill:#1111DD;}.cls-2{fill:#fff;}.cls-3{fill:#343541;}</style></defs><g id="Layer_2" data-name="Layer 2"><g id="gps-educ"><path class="cls-1" d="M55.22,27.61A27.61,27.61,0,0,0,0,27.61c0,15.25,27.61,48,27.61,48S55.22,42.86,55.22,27.61Z"/><circle class="cls-2" cx="27.61" cy="27.61" r="20.85"/><path class="cls-3" d="M45.38,23.12l-4.67-2L39,20.31,27.84,15.45a.53.53,0,0,0-.46,0L16.27,20.31,14.79,21,9.85,23.12a.59.59,0,0,0,0,1.08L16.27,27l11.11,4.85a.53.53,0,0,0,.46,0L39,27l1-.43V37.36l1.48-1.47,1.47,1.47V25.3l2.51-1.1A.59.59,0,0,0,45.38,23.12Z"/><path class="cls-3" d="M27.61,35.24A3.89,3.89,0,0,1,26,34.9L16.3,30.63a11.34,11.34,0,0,0,22.63,0L29.17,34.9A3.74,3.74,0,0,1,27.61,35.24Z"/></g></g></svg>