<svg xmlns="http://www.w3.org/2000/svg" viewBox="0 0 55.22 75.58"><defs><style>.cls-1{fill:#F8820B;}.cls-2{fill:#fff;}.cls-3{fill:#343541;}</style></defs><g id="Layer_2" data-name="Layer 2"><g id="gps-setting"><path class="cls-1" d="M55.22,27.61A27.61,27.61,0,0,0,0,27.61c0,15.25,27.61,48,27.61,48S55.22,42.86,55.22,27.61Z"/><circle class="cls-2" cx="27.61" cy="27.61" r="20.85"/><path class="cls-3" d="M41.28,29v1.44a1.89,1.89,0,0,1-.56,1.35,2,2,0,0,1-1.36.56,1.15,1.15,0,0,0-1.1.87,12.73,12.73,0,0,1-1.12,2.69,1.21,1.21,0,0,0-.16.61,1.11,1.11,0,0,0,.33.79,1.91,1.91,0,0,1,0,2.71l-1,1a1.9,1.9,0,0,1-2.7,0h0a1.16,1.16,0,0,0-1.4-.17A12.51,12.51,0,0,1,29.49,42a1.16,1.16,0,0,0-.86,1.11A1.91,1.91,0,0,1,26.71,45H25.27a1.91,1.91,0,0,1-1.35-.56,1.87,1.87,0,0,1-.56-1.35A1.16,1.16,0,0,0,22.49,42a13,13,0,0,1-2.69-1.12,1.17,1.17,0,0,0-.6-.16,1.13,1.13,0,0,0-.8.33,1.91,1.91,0,0,1-2.71,0l-1-1a1.92,1.92,0,0,1,0-2.71,1.16,1.16,0,0,0,.17-1.4,12.73,12.73,0,0,1-1.12-2.69,1.15,1.15,0,0,0-1.11-.87,1.92,1.92,0,0,1-1.91-1.91V29a1.91,1.91,0,0,1,.56-1.35,1.89,1.89,0,0,1,1.35-.56,1.16,1.16,0,0,0,1.11-.87,12.51,12.51,0,0,1,1.12-2.69,1.16,1.16,0,0,0-.17-1.4h0a1.9,1.9,0,0,1,0-2.7l1-1a1.91,1.91,0,0,1,2.71,0h0a1.16,1.16,0,0,0,1.4.16,13.52,13.52,0,0,1,2.69-1.12,1.15,1.15,0,0,0,.87-1.1,1.92,1.92,0,0,1,1.91-1.92h1.44A1.94,1.94,0,0,1,28,15a3.93,3.93,0,0,0-1.64,3.19v.71a3.94,3.94,0,0,0,1.77,3.29,4.23,4.23,0,0,0,0,1.42A7.14,7.14,0,0,0,26,23.25a7,7,0,1,0,7,7,6.78,6.78,0,0,0-.6-2.81h.17a4.15,4.15,0,0,0,.79-.08,3.94,3.94,0,0,0,3.29,1.77h.71a3.91,3.91,0,0,0,3.17-1.61A1.9,1.9,0,0,1,41.28,29Z"/><path class="cls-3" d="M43.58,17.21a.57.57,0,0,1-.55-.42,6.32,6.32,0,0,0-.56-1.34.57.57,0,0,1,.09-.69.94.94,0,0,0,0-1.34l-.5-.51a1,1,0,0,0-1.34,0h0A.57.57,0,0,1,40,13a6.21,6.21,0,0,0-1.33-.55.59.59,0,0,1-.43-.55,1,1,0,0,0-.95-1H36.6a.94.94,0,0,0-1,1,.59.59,0,0,1-.43.55,6.21,6.21,0,0,0-1.33.55.57.57,0,0,1-.69-.08h0a1,1,0,0,0-1.34,0l-.5.51a1,1,0,0,0,0,1.34.54.54,0,0,1,.16.39.63.63,0,0,1-.07.3,5.84,5.84,0,0,0-.56,1.34.57.57,0,0,1-.55.42,1,1,0,0,0-.95.95v.71a1,1,0,0,0,.95.95.58.58,0,0,1,.55.43,5.84,5.84,0,0,0,.56,1.34.58.58,0,0,1-.09.69.94.94,0,0,0,0,1.34l.5.5a1,1,0,0,0,1.34,0h0a.57.57,0,0,1,.69-.08,6.21,6.21,0,0,0,1.33.55.58.58,0,0,1,.43.55,1,1,0,0,0,1,.95h.71a.94.94,0,0,0,.77-.4,1,1,0,0,0,.18-.55.58.58,0,0,1,.43-.55A6.21,6.21,0,0,0,40,24a.57.57,0,0,1,.69.08h0a1,1,0,0,0,1.34,0l.5-.5a1,1,0,0,0,0-1.34.57.57,0,0,1-.16-.4.59.59,0,0,1,.07-.29A6.32,6.32,0,0,0,43,20.25a.58.58,0,0,1,.55-.43.94.94,0,0,0,.94-.95v-.71A1,1,0,0,0,43.58,17.21Zm-6.27,4.95-.36,0a3.44,3.44,0,0,1-3.44-3.44,2.17,2.17,0,0,1,0-.26,3.44,3.44,0,1,1,3.79,3.68Z"/></g></g></svg>