<svg xmlns="http://www.w3.org/2000/svg" viewBox="0 0 55.22 75.58"><defs><style>.cls-1{fill:#1EEFEF;}.cls-2{fill:#fff;}.cls-3{fill:#343541;}</style></defs><g id="Layer_2" data-name="Layer 2"><g id="gps-sport"><path class="cls-1" d="M55.22,27.61A27.61,27.61,0,0,0,0,27.61c0,15.25,27.61,48,27.61,48S55.22,42.86,55.22,27.61Z"/><circle class="cls-2" cx="27.61" cy="27.61" r="20.85"/><path class="cls-3" d="M20.37,27.61a14.51,14.51,0,0,1-4.72,10.72,16.06,16.06,0,0,1,0-21.44A14.51,14.51,0,0,1,20.37,27.61Z"/><path class="cls-3" d="M31.85,27.61a17.53,17.53,0,0,0,5.51,12.76,16.05,16.05,0,0,1-19.5,0,17.53,17.53,0,0,0,0-25.52,16.05,16.05,0,0,1,19.5,0A17.53,17.53,0,0,0,31.85,27.61Z"/><path class="cls-3" d="M43.67,27.61a16,16,0,0,1-4.1,10.72,14.53,14.53,0,0,1,0-21.44A16,16,0,0,1,43.67,27.61Z"/></g></g></svg>