<svg xmlns="http://www.w3.org/2000/svg" viewBox="0 0 55.22 75.58"><defs><style>.cls-1{fill:#E0E038;}.cls-2{fill:#fff;}.cls-3{fill:#343541;}</style></defs><g id="Layer_2" data-name="Layer 2"><g id="gps-research"><path class="cls-1" d="M27.61,0A27.61,27.61,0,0,0,0,27.61c0,15.25,27.61,48,27.61,48A245.54,245.54,0,0,0,45.73,50.72c.87-1.4,1.71-2.81,2.51-4.21,4-7,7-13.89,7-18.9A27.61,27.61,0,0,0,27.61,0ZM43.23,41.42a21.07,21.07,0,0,1-4.85,4.06,20.95,20.95,0,1,1,4.85-4.06Z"/><path class="cls-1" d="M48.46,27.61a20.74,20.74,0,0,1-5.23,13.81,21.07,21.07,0,0,1-4.85,4.06A20.86,20.86,0,1,1,48.46,27.61Z"/><path class="cls-2" d="M48.46,27.61a20.74,20.74,0,0,1-5.23,13.81,21.07,21.07,0,0,1-4.85,4.06A20.86,20.86,0,1,1,48.46,27.61Z"/><path class="cls-3" d="M43.23,41.42a21.07,21.07,0,0,1-4.85,4.06l-2.72-2.72a1.61,1.61,0,0,1,0-2.28l.12-.12L32.62,37.2l1.94-1.93,3.16,3.16.12-.12a1.61,1.61,0,0,1,2.28,0Z"/><circle class="cls-3" cx="25.57" cy="27.04" r="13.45"/><path class="cls-2" d="M19.23,40.6A18.11,18.11,0,0,1,19,33a10.34,10.34,0,0,1,1.62-3.82,10,10,0,0,1,2.79-2.66c2-1.27,3.37-1.74,3.95-3.38s.18-3.71-.65-5.56a11.6,11.6,0,0,1,1.82,2.56,7,7,0,0,1,.81,3.32A6.33,6.33,0,0,1,28.09,27c-.71,1-1.5,1.78-2,2.5a4.82,4.82,0,0,0-1.1,4,11.93,11.93,0,0,0,1.78,4.29,4.08,4.08,0,1,1-7.45,3Z"/><path class="cls-2" d="M27.63,36.75a6.77,6.77,0,0,1,3-6.29,6.87,6.87,0,0,1,5.47-.71,9,9,0,0,1-3.79,5.67A8.58,8.58,0,0,1,27.63,36.75Z"/><path class="cls-2" d="M22.94,25.29a5.09,5.09,0,0,0-1.14-5.13,5.16,5.16,0,0,0-3.89-1.45,6.72,6.72,0,0,0,1.82,4.81A6.48,6.48,0,0,0,22.94,25.29Z"/></g></g></svg>